<?xml version="1.0" encoding="UTF-8"?>
<svg width="512" height="512" viewBox="0 0 512 512" fill="none" xmlns="http://www.w3.org/2000/svg">
    <!-- Background -->
    <rect width="512" height="512" rx="64" fill="url(#gradient)"/>
    
    <!-- Game Controller -->
    <path d="M128 192h256c35.3 0 64 28.7 64 64v64c0 35.3-28.7 64-64 64H128c-35.3 0-64-28.7-64-64v-64c0-35.3 28.7-64 64-64z" 
          fill="#FFFFFF" fill-opacity="0.9"/>
    
    <!-- D-Pad -->
    <rect x="148" y="246" width="20" height="60" rx="4" fill="#4A4A4A"/>
    <rect x="128" y="266" width="60" height="20" rx="4" fill="#4A4A4A"/>
    
    <!-- Buttons -->
    <circle cx="344" cy="276" r="12" fill="#4A4A4A"/>
    <circle cx="374" cy="276" r="12" fill="#4A4A4A"/>
    <circle cx="359" cy="261" r="12" fill="#4A4A4A"/>
    <circle cx="359" cy="291" r="12" fill="#4A4A4A"/>
    
    <!-- Gradient Definition -->
    <defs>
        <linearGradient id="gradient" x1="0" y1="0" x2="512" y2="512" gradientUnits="userSpaceOnUse">
            <stop offset="0%" style="stop-color:#4facfe"/>
            <stop offset="100%" style="stop-color:#00f2fe"/>
        </linearGradient>
    </defs>
</svg> 